<svg xmlns="http://www.w3.org/2000/svg" xmlns:xlink="http://www.w3.org/1999/xlink" width="500" zoomAndPan="magnify" viewBox="0 0 375 374.999991" height="500" preserveAspectRatio="xMidYMid meet" version="1.0"><defs><g/><clipPath id="5b80b288ce"><path d="M 142.414062 115.320312 L 232.414062 115.320312 L 232.414062 194 L 142.414062 194 Z M 142.414062 115.320312 " clip-rule="nonzero"/></clipPath><clipPath id="f515bbb122"><path d="M 154 184 L 220 184 L 220 209.070312 L 154 209.070312 Z M 154 184 " clip-rule="nonzero"/></clipPath></defs><rect x="-37.5" width="450" fill="#ffffff" y="-37.499999" height="449.999989" fill-opacity="1"/><rect x="-37.5" width="450" fill="#ffffff" y="-37.499999" height="449.999989" fill-opacity="1"/><rect x="-37.5" width="450" fill="#000c12" y="-37.499999" height="449.999989" fill-opacity="1"/><g fill="#00a2f4" fill-opacity="1"><g transform="translate(119.162494, 254.898425)"><g><path d="M 19.5 -38.078125 C 20.488281 -37.503906 21.347656 -36.875 22.078125 -36.1875 C 22.816406 -35.507812 23.390625 -34.707031 23.796875 -33.78125 C 24.691406 -31.769531 25.019531 -29.519531 24.78125 -27.03125 C 24.675781 -23.6875 23.71875 -21.191406 21.90625 -19.546875 C 20.300781 -17.941406 17.742188 -17.140625 14.234375 -17.140625 C 13.753906 -17.140625 13.304688 -17.128906 12.890625 -17.109375 C 12.484375 -17.097656 12.109375 -17.0625 11.765625 -17 C 11.390625 -17 11.023438 -17.019531 10.671875 -17.0625 C 10.316406 -17.113281 9.96875 -17.140625 9.625 -17.140625 C 9.28125 -17.210938 8.9375 -17.28125 8.59375 -17.34375 C 8.257812 -17.414062 7.921875 -17.519531 7.578125 -17.65625 C 6.828125 -17.925781 6.078125 -18.320312 5.328125 -18.84375 C 3.648438 -19.894531 2.554688 -21.257812 2.046875 -22.9375 C 1.503906 -24.46875 1.234375 -26.191406 1.234375 -28.109375 C 1.234375 -28.953125 1.300781 -29.800781 1.4375 -30.65625 C 1.570312 -31.507812 1.8125 -32.3125 2.15625 -33.0625 C 2.425781 -33.882812 2.820312 -34.609375 3.34375 -35.234375 C 3.875 -35.867188 4.535156 -36.507812 5.328125 -37.15625 C 6.421875 -38.082031 7.71875 -38.734375 9.21875 -39.109375 C 9.894531 -39.347656 10.597656 -39.5 11.328125 -39.5625 C 12.066406 -39.632812 12.796875 -39.632812 13.515625 -39.5625 C 13.890625 -39.5625 14.210938 -39.535156 14.484375 -39.484375 C 14.753906 -39.441406 15.03125 -39.421875 15.3125 -39.421875 C 15.78125 -39.421875 16.222656 -39.316406 16.640625 -39.109375 C 16.835938 -39.035156 17.0625 -38.972656 17.3125 -38.921875 C 17.570312 -38.867188 17.789062 -38.8125 17.96875 -38.75 C 18.175781 -38.675781 18.414062 -38.578125 18.6875 -38.453125 C 18.957031 -38.335938 19.226562 -38.210938 19.5 -38.078125 Z M 4.34375 -5.984375 C 4.34375 -6.773438 4.445312 -7.46875 4.65625 -8.0625 C 4.863281 -8.65625 5.171875 -9.226562 5.578125 -9.78125 C 6.054688 -10.257812 6.566406 -10.691406 7.109375 -11.078125 C 7.660156 -11.472656 8.328125 -11.820312 9.109375 -12.125 C 9.828125 -12.46875 10.628906 -12.734375 11.515625 -12.921875 C 12.398438 -13.109375 13.359375 -13.289062 14.390625 -13.46875 C 15.378906 -13.53125 16.410156 -13.585938 17.484375 -13.640625 C 18.554688 -13.691406 19.691406 -13.71875 20.890625 -13.71875 C 22.015625 -13.71875 23.117188 -13.691406 24.203125 -13.640625 C 25.296875 -13.585938 26.335938 -13.53125 27.328125 -13.46875 C 28.359375 -13.394531 29.304688 -13.265625 30.171875 -13.078125 C 31.046875 -12.890625 31.859375 -12.660156 32.609375 -12.390625 C 33.328125 -12.117188 33.972656 -11.785156 34.546875 -11.390625 C 35.128906 -10.992188 35.660156 -10.554688 36.140625 -10.078125 C 36.921875 -9.191406 37.3125 -7.828125 37.3125 -5.984375 C 37.3125 -4.316406 36.921875 -2.96875 36.140625 -1.9375 C 35.148438 -0.945312 33.972656 -0.179688 32.609375 0.359375 C 31.859375 0.628906 31.046875 0.859375 30.171875 1.046875 C 29.304688 1.234375 28.359375 1.363281 27.328125 1.4375 C 26.335938 1.5 25.296875 1.554688 24.203125 1.609375 C 23.117188 1.660156 22.015625 1.6875 20.890625 1.6875 C 19.691406 1.6875 18.554688 1.660156 17.484375 1.609375 C 16.410156 1.554688 15.378906 1.5 14.390625 1.4375 C 13.359375 1.363281 12.398438 1.234375 11.515625 1.046875 C 10.628906 0.859375 9.828125 0.628906 9.109375 0.359375 C 8.328125 0.0859375 7.660156 -0.242188 7.109375 -0.640625 C 6.566406 -1.035156 6.054688 -1.46875 5.578125 -1.9375 C 4.753906 -3 4.34375 -4.347656 4.34375 -5.984375 Z M 18.78125 -26.40625 C 18.78125 -26.78125 18.78125 -27.144531 18.78125 -27.5 C 18.78125 -27.863281 18.75 -28.179688 18.6875 -28.453125 C 18.6875 -28.828125 18.640625 -29.164062 18.546875 -29.46875 C 18.460938 -29.78125 18.351562 -30.078125 18.21875 -30.359375 C 18.15625 -30.628906 18.035156 -30.875 17.859375 -31.09375 C 17.691406 -31.3125 17.503906 -31.5625 17.296875 -31.84375 C 16.890625 -32.25 16.3125 -32.570312 15.5625 -32.8125 C 14.84375 -33.082031 14.023438 -33.21875 13.109375 -33.21875 C 12.628906 -33.21875 12.179688 -33.179688 11.765625 -33.109375 C 11.359375 -33.046875 10.953125 -32.945312 10.546875 -32.8125 C 10.171875 -32.675781 9.800781 -32.46875 9.4375 -32.1875 C 9.082031 -31.914062 8.71875 -31.613281 8.34375 -31.28125 C 7.832031 -30.59375 7.472656 -29.738281 7.265625 -28.71875 C 7.160156 -28.101562 7.160156 -27.421875 7.265625 -26.671875 C 7.367188 -26.296875 7.488281 -25.9375 7.625 -25.59375 C 7.757812 -25.25 7.914062 -24.941406 8.09375 -24.671875 C 8.226562 -24.398438 8.429688 -24.132812 8.703125 -23.875 C 8.972656 -23.625 9.28125 -23.394531 9.625 -23.1875 C 10.03125 -23.019531 10.445312 -22.863281 10.875 -22.71875 C 11.300781 -22.582031 11.789062 -22.515625 12.34375 -22.515625 C 12.988281 -22.421875 13.671875 -22.421875 14.390625 -22.515625 C 14.722656 -22.515625 15.050781 -22.570312 15.375 -22.6875 C 15.707031 -22.8125 16.039062 -22.941406 16.375 -23.078125 C 16.65625 -23.222656 16.921875 -23.394531 17.171875 -23.59375 C 17.429688 -23.800781 17.660156 -24.078125 17.859375 -24.421875 C 18.035156 -24.691406 18.21875 -24.988281 18.40625 -25.3125 C 18.59375 -25.632812 18.71875 -26 18.78125 -26.40625 Z M 30.71875 -5.984375 C 30.71875 -6.265625 30.644531 -6.53125 30.5 -6.78125 C 30.363281 -7.039062 30.128906 -7.238281 29.796875 -7.375 C 29.484375 -7.507812 29.128906 -7.644531 28.734375 -7.78125 C 28.347656 -7.914062 27.914062 -8.050781 27.4375 -8.1875 C 26.957031 -8.257812 26.476562 -8.320312 26 -8.375 C 25.519531 -8.425781 24.992188 -8.453125 24.421875 -8.453125 C 23.765625 -8.453125 23.15625 -8.472656 22.59375 -8.515625 C 22.03125 -8.566406 21.460938 -8.59375 20.890625 -8.59375 C 20.234375 -8.59375 19.625 -8.566406 19.0625 -8.515625 C 18.5 -8.472656 17.960938 -8.453125 17.453125 -8.453125 C 16.835938 -8.453125 16.289062 -8.425781 15.8125 -8.375 C 15.332031 -8.320312 14.859375 -8.257812 14.390625 -8.1875 C 13.910156 -8.050781 13.484375 -7.914062 13.109375 -7.78125 C 12.734375 -7.644531 12.390625 -7.507812 12.078125 -7.375 C 11.804688 -7.238281 11.601562 -7.039062 11.46875 -6.78125 C 11.332031 -6.53125 11.265625 -6.265625 11.265625 -5.984375 C 11.265625 -5.441406 11.535156 -5.050781 12.078125 -4.8125 C 12.660156 -4.363281 13.429688 -4.09375 14.390625 -4 C 14.859375 -3.925781 15.332031 -3.863281 15.8125 -3.8125 C 16.289062 -3.757812 16.835938 -3.734375 17.453125 -3.734375 C 17.960938 -3.671875 18.5 -3.628906 19.0625 -3.609375 C 19.625 -3.585938 20.234375 -3.578125 20.890625 -3.578125 L 24.421875 -3.578125 C 24.992188 -3.578125 25.519531 -3.585938 26 -3.609375 C 26.476562 -3.628906 26.957031 -3.671875 27.4375 -3.734375 C 28.425781 -3.835938 29.210938 -4.113281 29.796875 -4.5625 C 30.410156 -4.789062 30.71875 -5.265625 30.71875 -5.984375 Z M 36.953125 -34.140625 L 38.796875 -34.140625 C 39.003906 -34.140625 39.207031 -34.140625 39.40625 -34.140625 C 39.613281 -34.140625 39.785156 -34.109375 39.921875 -34.046875 L 40.75 -34.046875 C 41.394531 -33.867188 41.890625 -33.628906 42.234375 -33.328125 C 42.367188 -33.253906 42.460938 -33.128906 42.515625 -32.953125 C 42.566406 -32.785156 42.59375 -32.601562 42.59375 -32.40625 C 42.65625 -32.269531 42.691406 -32.085938 42.703125 -31.859375 C 42.722656 -31.640625 42.734375 -31.394531 42.734375 -31.125 C 42.734375 -30.851562 42.722656 -30.628906 42.703125 -30.453125 C 42.691406 -30.285156 42.617188 -30.113281 42.484375 -29.9375 C 42.242188 -29.601562 41.988281 -29.34375 41.71875 -29.15625 C 41.445312 -28.96875 41.125 -28.875 40.75 -28.875 C 40.332031 -28.800781 39.894531 -28.753906 39.4375 -28.734375 C 38.976562 -28.722656 38.507812 -28.679688 38.03125 -28.609375 L 36.953125 -28.609375 L 36.953125 -25.59375 L 40.75 -25.59375 C 41.320312 -25.425781 41.75 -25.203125 42.03125 -24.921875 C 42.195312 -24.859375 42.3125 -24.75 42.375 -24.59375 C 42.445312 -24.4375 42.519531 -24.289062 42.59375 -24.15625 C 42.59375 -23.957031 42.613281 -23.753906 42.65625 -23.546875 C 42.707031 -23.335938 42.734375 -23.097656 42.734375 -22.828125 C 42.734375 -22.554688 42.722656 -22.316406 42.703125 -22.109375 C 42.691406 -21.910156 42.617188 -21.722656 42.484375 -21.546875 C 42.003906 -20.867188 41.425781 -20.476562 40.75 -20.375 C 40.332031 -20.375 39.894531 -20.347656 39.4375 -20.296875 C 38.976562 -20.242188 38.507812 -20.21875 38.03125 -20.21875 L 36.953125 -20.21875 L 36.953125 -19.546875 C 36.890625 -19.347656 36.847656 -19.160156 36.828125 -18.984375 C 36.804688 -18.816406 36.796875 -18.648438 36.796875 -18.484375 C 36.734375 -18.273438 36.664062 -18.066406 36.59375 -17.859375 C 36.53125 -17.660156 36.460938 -17.457031 36.390625 -17.25 C 36.253906 -17.082031 36.117188 -16.910156 35.984375 -16.734375 C 35.847656 -16.566406 35.675781 -16.414062 35.46875 -16.28125 C 35.269531 -16.144531 35.03125 -16.023438 34.75 -15.921875 C 34.476562 -15.816406 34.15625 -15.765625 33.78125 -15.765625 C 33.507812 -15.765625 33.253906 -15.789062 33.015625 -15.84375 C 32.773438 -15.894531 32.585938 -15.988281 32.453125 -16.125 C 32.046875 -16.289062 31.773438 -16.546875 31.640625 -16.890625 C 31.492188 -17.054688 31.382812 -17.207031 31.3125 -17.34375 C 31.25 -17.488281 31.1875 -17.628906 31.125 -17.765625 C 31.050781 -17.929688 31.003906 -18.109375 30.984375 -18.296875 C 30.972656 -18.484375 30.914062 -18.664062 30.8125 -18.84375 L 30.8125 -35.375 C 30.8125 -35.4375 30.816406 -35.5625 30.828125 -35.75 C 30.847656 -35.9375 30.910156 -36.203125 31.015625 -36.546875 C 31.015625 -37.191406 31.132812 -37.703125 31.375 -38.078125 C 31.507812 -38.421875 31.738281 -38.6875 32.0625 -38.875 C 32.394531 -39.0625 32.796875 -39.207031 33.265625 -39.3125 C 33.953125 -39.382812 34.515625 -39.34375 34.953125 -39.1875 C 35.398438 -39.03125 35.796875 -38.800781 36.140625 -38.5 C 36.273438 -38.15625 36.410156 -37.929688 36.546875 -37.828125 C 36.617188 -37.753906 36.660156 -37.65625 36.671875 -37.53125 C 36.691406 -37.414062 36.734375 -37.289062 36.796875 -37.15625 C 36.796875 -36.988281 36.820312 -36.84375 36.875 -36.71875 C 36.925781 -36.601562 36.953125 -36.515625 36.953125 -36.453125 Z M 36.953125 -34.140625 "/></g></g></g><g fill="#00a2f4" fill-opacity="1"><g transform="translate(167.433034, 254.898425)"><g><path d="M 18.421875 -32.859375 C 18.421875 -33.203125 18.4375 -33.679688 18.46875 -34.296875 C 18.507812 -34.910156 18.628906 -35.523438 18.828125 -36.140625 C 19.035156 -36.753906 19.351562 -37.28125 19.78125 -37.71875 C 20.207031 -38.164062 20.832031 -38.390625 21.65625 -38.390625 C 22.375 -38.390625 23.003906 -38.203125 23.546875 -37.828125 C 23.953125 -37.554688 24.265625 -37.066406 24.484375 -36.359375 C 24.710938 -35.660156 24.867188 -34.882812 24.953125 -34.03125 C 25.035156 -33.1875 25.078125 -32.335938 25.078125 -31.484375 C 25.078125 -30.628906 25.0625 -29.925781 25.03125 -29.375 L 25.03125 -10.59375 C 25.03125 -10.488281 25.03125 -10.117188 25.03125 -9.484375 C 25.03125 -8.859375 24.992188 -8.144531 24.921875 -7.34375 C 24.859375 -6.539062 24.75 -5.722656 24.59375 -4.890625 C 24.4375 -4.054688 24.222656 -3.378906 23.953125 -2.859375 C 23.847656 -2.628906 23.6875 -2.382812 23.46875 -2.125 C 23.25 -1.863281 23.085938 -1.6875 22.984375 -1.59375 C 22.710938 -1.3125 22.410156 -1.101562 22.078125 -0.96875 C 21.753906 -0.832031 21.421875 -0.722656 21.078125 -0.640625 C 20.742188 -0.554688 20.441406 -0.492188 20.171875 -0.453125 C 19.898438 -0.421875 19.710938 -0.40625 19.609375 -0.40625 L 8.859375 -0.40625 C 8.035156 -0.40625 7.253906 -0.472656 6.515625 -0.609375 C 5.785156 -0.742188 5.113281 -1.050781 4.5 -1.53125 C 4.0625 -1.875 3.726562 -2.3125 3.5 -2.84375 C 3.28125 -3.375 3.128906 -3.894531 3.046875 -4.40625 C 2.960938 -4.914062 2.921875 -5.382812 2.921875 -5.8125 C 2.921875 -6.238281 2.921875 -6.503906 2.921875 -6.609375 L 2.921875 -33.375 C 2.921875 -33.851562 2.976562 -34.378906 3.09375 -34.953125 C 3.21875 -35.535156 3.40625 -36.070312 3.65625 -36.5625 C 3.914062 -37.0625 4.25 -37.472656 4.65625 -37.796875 C 5.0625 -38.117188 5.570312 -38.28125 6.1875 -38.28125 C 7.894531 -38.28125 9.003906 -37.550781 9.515625 -36.09375 C 9.691406 -35.613281 9.796875 -35.132812 9.828125 -34.65625 C 9.859375 -34.175781 9.894531 -33.695312 9.9375 -33.21875 L 9.9375 -33.125 C 9.9375 -32.882812 9.925781 -32.289062 9.90625 -31.34375 C 9.882812 -30.40625 9.875 -29.425781 9.875 -28.40625 C 9.875 -27.382812 9.875 -26.472656 9.875 -25.671875 C 9.875 -24.867188 9.910156 -24.46875 9.984375 -24.46875 L 18.328125 -24.515625 C 18.359375 -24.617188 18.378906 -24.804688 18.390625 -25.078125 C 18.410156 -25.347656 18.421875 -25.644531 18.421875 -25.96875 C 18.421875 -26.300781 18.421875 -26.609375 18.421875 -26.890625 C 18.421875 -27.179688 18.421875 -27.414062 18.421875 -27.59375 Z M 39.5625 -23.75 C 39.738281 -23.75 39.898438 -23.734375 40.046875 -23.703125 C 40.203125 -23.671875 40.367188 -23.65625 40.546875 -23.65625 C 40.710938 -23.613281 40.894531 -23.582031 41.09375 -23.5625 C 41.300781 -23.550781 41.507812 -23.53125 41.71875 -23.5 C 42.09375 -23.425781 42.46875 -23.296875 42.84375 -23.109375 C 43.21875 -22.921875 43.488281 -22.640625 43.65625 -22.265625 C 43.894531 -21.890625 44.015625 -21.445312 44.015625 -20.9375 C 44.015625 -20.664062 44.003906 -20.414062 43.984375 -20.1875 C 43.972656 -19.96875 43.9375 -19.722656 43.875 -19.453125 C 43.800781 -19.179688 43.722656 -18.890625 43.640625 -18.578125 C 43.554688 -18.273438 43.394531 -18.035156 43.15625 -17.859375 C 42.675781 -17.523438 42.210938 -17.304688 41.765625 -17.203125 C 41.222656 -17.128906 40.554688 -17.109375 39.765625 -17.140625 C 38.984375 -17.179688 38.320312 -17.179688 37.78125 -17.140625 C 37.738281 -17.140625 37.703125 -17.125 37.671875 -17.09375 L 37.625 -17.09375 L 37.578125 -17.046875 L 37.578125 -16.890625 C 37.578125 -16.484375 37.578125 -16 37.578125 -15.4375 C 37.578125 -14.875 37.578125 -14.289062 37.578125 -13.6875 C 37.578125 -13.09375 37.578125 -12.515625 37.578125 -11.953125 C 37.578125 -11.390625 37.578125 -10.882812 37.578125 -10.4375 C 37.640625 -8.664062 37.640625 -6.925781 37.578125 -5.21875 L 37.578125 -4.5 C 37.578125 -4.0625 37.566406 -3.578125 37.546875 -3.046875 C 37.523438 -2.515625 37.476562 -1.992188 37.40625 -1.484375 C 37.34375 -0.972656 37.222656 -0.484375 37.046875 -0.015625 C 36.878906 0.441406 36.644531 0.820312 36.34375 1.125 C 35.9375 1.601562 35.390625 1.84375 34.703125 1.84375 C 34.703125 1.84375 34.671875 1.828125 34.609375 1.796875 C 33.785156 1.753906 33.125 1.507812 32.625 1.0625 C 32.132812 0.625 31.757812 0.0820312 31.5 -0.5625 C 31.25 -1.207031 31.085938 -1.878906 31.015625 -2.578125 C 30.953125 -3.285156 30.921875 -3.910156 30.921875 -4.453125 L 30.921875 -34.859375 C 30.921875 -34.890625 30.921875 -35.050781 30.921875 -35.34375 C 30.921875 -35.632812 30.953125 -35.972656 31.015625 -36.359375 C 31.085938 -36.753906 31.195312 -37.164062 31.34375 -37.59375 C 31.5 -38.019531 31.71875 -38.367188 32 -38.640625 C 32.226562 -38.878906 32.570312 -39.054688 33.03125 -39.171875 C 33.5 -39.296875 33.921875 -39.359375 34.296875 -39.359375 C 35.046875 -39.359375 35.675781 -39.101562 36.1875 -38.59375 C 36.664062 -38.113281 36.945312 -37.609375 37.03125 -37.078125 C 37.113281 -36.554688 37.191406 -36.003906 37.265625 -35.421875 C 37.296875 -35.285156 37.3125 -35.082031 37.3125 -34.8125 C 37.382812 -34.226562 37.425781 -33.628906 37.4375 -33.015625 C 37.457031 -32.398438 37.484375 -31.785156 37.515625 -31.171875 C 37.515625 -30.796875 37.523438 -30.425781 37.546875 -30.0625 C 37.566406 -29.707031 37.578125 -29.34375 37.578125 -28.96875 C 37.535156 -28.769531 37.523438 -28.578125 37.546875 -28.390625 C 37.566406 -28.203125 37.578125 -28.019531 37.578125 -27.84375 L 37.578125 -24.984375 C 37.578125 -24.804688 37.578125 -24.613281 37.578125 -24.40625 C 37.578125 -24.207031 37.609375 -24.023438 37.671875 -23.859375 C 37.671875 -23.816406 37.84375 -23.796875 38.1875 -23.796875 C 38.53125 -23.796875 38.71875 -23.796875 38.75 -23.796875 C 39.050781 -23.734375 39.289062 -23.71875 39.46875 -23.75 Z M 18.421875 -6.65625 L 18.375 -18.171875 L 9.515625 -18.125 C 9.515625 -17.75 9.515625 -17.285156 9.515625 -16.734375 C 9.515625 -16.191406 9.515625 -15.613281 9.515625 -15 C 9.515625 -14.382812 9.515625 -13.796875 9.515625 -13.234375 C 9.515625 -12.671875 9.515625 -12.21875 9.515625 -11.875 C 9.515625 -11.601562 9.515625 -11.226562 9.515625 -10.75 C 9.515625 -10.269531 9.515625 -9.753906 9.515625 -9.203125 C 9.515625 -8.660156 9.515625 -8.148438 9.515625 -7.671875 C 9.515625 -7.203125 9.515625 -6.847656 9.515625 -6.609375 Z M 18.421875 -6.65625 "/></g></g></g><g fill="#00a2f4" fill-opacity="1"><g transform="translate(215.089325, 254.898425)"><g><path d="M 35.3125 -2.5625 C 35.863281 -2.488281 36.34375 -2.347656 36.75 -2.140625 C 37.15625 -1.941406 37.445312 -1.570312 37.625 -1.03125 C 38.03125 0.195312 37.585938 1.070312 36.296875 1.59375 C 35.878906 1.757812 35.46875 1.859375 35.0625 1.890625 C 34.65625 1.921875 34.265625 1.9375 33.890625 1.9375 L 10.078125 1.9375 C 9.398438 1.9375 8.691406 1.925781 7.953125 1.90625 C 7.222656 1.894531 6.484375 1.875 5.734375 1.84375 C 5.015625 1.8125 4.414062 1.554688 3.9375 1.078125 C 3.457031 0.597656 3.1875 -0.03125 3.125 -0.8125 L 2.96875 -4.40625 C 2.9375 -4.78125 2.9375 -5.222656 2.96875 -5.734375 C 3 -6.242188 3.171875 -6.671875 3.484375 -7.015625 C 3.960938 -7.523438 4.601562 -7.847656 5.40625 -7.984375 C 6.207031 -8.117188 6.984375 -8.1875 7.734375 -8.1875 C 8.210938 -8.1875 9.003906 -8.1875 10.109375 -8.1875 C 11.210938 -8.1875 12.71875 -8.175781 14.625 -8.15625 C 16.539062 -8.144531 18.90625 -8.140625 21.71875 -8.140625 C 24.539062 -8.140625 27.894531 -8.140625 31.78125 -8.140625 L 31.78125 -9.984375 L 6.609375 -9.984375 C 6.265625 -9.984375 5.953125 -9.984375 5.671875 -9.984375 C 5.398438 -9.984375 5.128906 -10.015625 4.859375 -10.078125 C 4.554688 -10.148438 4.285156 -10.21875 4.046875 -10.28125 C 3.804688 -10.351562 3.597656 -10.523438 3.421875 -10.796875 C 2.953125 -11.515625 2.835938 -12.25 3.078125 -13 C 3.171875 -13.269531 3.320312 -13.484375 3.53125 -13.640625 C 3.738281 -13.796875 3.976562 -13.921875 4.25 -14.015625 C 4.519531 -14.117188 4.78125 -14.1875 5.03125 -14.21875 C 5.289062 -14.257812 5.523438 -14.296875 5.734375 -14.328125 C 6.242188 -14.429688 6.769531 -14.484375 7.3125 -14.484375 C 7.832031 -14.484375 8.378906 -14.484375 8.953125 -14.484375 C 9.535156 -14.484375 10.242188 -14.484375 11.078125 -14.484375 C 11.921875 -14.484375 12.921875 -14.472656 14.078125 -14.453125 C 15.234375 -14.441406 16.65625 -14.4375 18.34375 -14.4375 C 20.039062 -14.4375 22.019531 -14.4375 24.28125 -14.4375 C 26.550781 -14.4375 29.222656 -14.4375 32.296875 -14.4375 C 34.035156 -14.4375 35.363281 -14.171875 36.28125 -13.640625 C 37.207031 -13.109375 37.671875 -12.25 37.671875 -11.0625 L 37.671875 -7.421875 C 37.671875 -6.941406 37.5625 -6.472656 37.34375 -6.015625 C 37.125 -5.554688 36.738281 -5.171875 36.1875 -4.859375 C 35.75 -4.585938 35.304688 -4.441406 34.859375 -4.421875 C 34.410156 -4.410156 33.96875 -4.40625 33.53125 -4.40625 L 9.265625 -4.40625 L 9.265625 -2.5625 Z M 3.421875 -32.296875 C 3.359375 -33.148438 3.304688 -34.003906 3.265625 -34.859375 C 3.234375 -35.710938 3.359375 -36.515625 3.640625 -37.265625 C 4.015625 -38.179688 4.625 -38.769531 5.46875 -39.03125 C 6.320312 -39.289062 7.175781 -39.421875 8.03125 -39.421875 L 31.890625 -39.421875 C 32.566406 -39.421875 33.210938 -39.394531 33.828125 -39.34375 C 34.441406 -39.289062 35.09375 -39.125 35.78125 -38.84375 C 36.320312 -38.613281 36.742188 -38.25 37.046875 -37.75 C 37.359375 -37.257812 37.5 -36.722656 37.46875 -36.140625 C 37.394531 -35.554688 37.195312 -35.050781 36.875 -34.625 C 36.550781 -34.195312 36.101562 -33.914062 35.53125 -33.78125 C 34.84375 -33.613281 33.921875 -33.53125 32.765625 -33.53125 C 32.316406 -33.53125 31.957031 -33.535156 31.6875 -33.546875 C 31.414062 -33.566406 31.257812 -33.578125 31.21875 -33.578125 L 16.4375 -33.578125 C 15.914062 -33.578125 15.398438 -33.566406 14.890625 -33.546875 C 14.378906 -33.535156 13.867188 -33.546875 13.359375 -33.578125 C 12.953125 -33.609375 12.535156 -33.65625 12.109375 -33.71875 C 11.679688 -33.789062 11.28125 -33.757812 10.90625 -33.625 C 10.53125 -33.53125 10.320312 -33.289062 10.28125 -32.90625 C 10.25 -32.53125 10.285156 -32.125 10.390625 -31.6875 C 10.867188 -31.613281 11.351562 -31.566406 11.84375 -31.546875 C 12.34375 -31.535156 12.832031 -31.515625 13.3125 -31.484375 L 23.03125 -31.484375 C 23.164062 -31.484375 23.488281 -31.472656 24 -31.453125 C 24.519531 -31.429688 25.066406 -31.421875 25.640625 -31.421875 C 26.222656 -31.421875 26.757812 -31.429688 27.25 -31.453125 C 27.75 -31.472656 28.066406 -31.484375 28.203125 -31.484375 C 28.304688 -31.484375 28.535156 -31.488281 28.890625 -31.5 C 29.253906 -31.519531 29.628906 -31.53125 30.015625 -31.53125 C 30.410156 -31.53125 30.785156 -31.53125 31.140625 -31.53125 C 31.503906 -31.53125 31.738281 -31.53125 31.84375 -31.53125 C 33.445312 -31.53125 34.789062 -31.273438 35.875 -30.765625 C 36.21875 -30.585938 36.5 -30.40625 36.71875 -30.21875 C 36.945312 -30.03125 37.09375 -29.734375 37.15625 -29.328125 C 37.394531 -28.441406 37.242188 -27.675781 36.703125 -27.03125 C 36.222656 -26.375 35.675781 -25.988281 35.0625 -25.875 C 34.445312 -25.757812 33.78125 -25.679688 33.0625 -25.640625 C 32.726562 -25.640625 32.066406 -25.628906 31.078125 -25.609375 C 30.085938 -25.597656 29.019531 -25.582031 27.875 -25.5625 C 26.726562 -25.550781 25.609375 -25.546875 24.515625 -25.546875 C 23.421875 -25.546875 22.617188 -25.546875 22.109375 -25.546875 C 21.566406 -25.546875 20.910156 -25.546875 20.140625 -25.546875 C 19.367188 -25.546875 18.582031 -25.550781 17.78125 -25.5625 C 16.976562 -25.582031 16.210938 -25.59375 15.484375 -25.59375 C 14.753906 -25.59375 14.128906 -25.59375 13.609375 -25.59375 C 12.484375 -25.625 11.359375 -25.65625 10.234375 -25.6875 C 9.109375 -25.726562 7.984375 -25.75 6.859375 -25.75 C 6.035156 -25.75 5.394531 -25.875 4.9375 -26.125 C 4.476562 -26.382812 4.144531 -26.742188 3.9375 -27.203125 C 3.738281 -27.660156 3.617188 -28.207031 3.578125 -28.84375 C 3.546875 -29.476562 3.53125 -30.148438 3.53125 -30.859375 C 3.53125 -31.097656 3.519531 -31.335938 3.5 -31.578125 C 3.488281 -31.816406 3.460938 -32.054688 3.421875 -32.296875 Z M 5.171875 -22.78125 C 5.441406 -22.8125 5.75 -22.832031 6.09375 -22.84375 C 6.4375 -22.863281 6.796875 -22.875 7.171875 -22.875 L 19.703125 -22.875 C 21.515625 -22.914062 23.289062 -22.9375 25.03125 -22.9375 C 26.5 -22.9375 28.035156 -22.9375 29.640625 -22.9375 C 31.242188 -22.9375 32.625 -22.914062 33.78125 -22.875 L 34.046875 -22.875 C 34.722656 -22.84375 35.398438 -22.828125 36.078125 -22.828125 C 36.765625 -22.828125 37.453125 -22.691406 38.140625 -22.421875 C 38.609375 -22.253906 38.988281 -21.960938 39.28125 -21.546875 C 39.570312 -21.140625 39.71875 -20.679688 39.71875 -20.171875 C 39.71875 -19.316406 39.378906 -18.597656 38.703125 -18.015625 C 38.148438 -17.535156 37.484375 -17.257812 36.703125 -17.1875 C 35.921875 -17.125 35.1875 -17.128906 34.5 -17.203125 L 5.125 -17.203125 C 5.082031 -17.203125 4.925781 -17.203125 4.65625 -17.203125 C 4.382812 -17.203125 4.066406 -17.234375 3.703125 -17.296875 C 3.347656 -17.367188 2.972656 -17.472656 2.578125 -17.609375 C 2.191406 -17.742188 1.878906 -17.945312 1.640625 -18.21875 C 1.234375 -18.632812 1.03125 -19.21875 1.03125 -19.96875 C 1.03125 -20.675781 1.25 -21.253906 1.6875 -21.703125 C 2.132812 -22.148438 2.59375 -22.414062 3.0625 -22.5 C 3.539062 -22.582031 4.039062 -22.660156 4.5625 -22.734375 C 4.65625 -22.734375 4.753906 -22.738281 4.859375 -22.75 C 4.960938 -22.769531 5.066406 -22.78125 5.171875 -22.78125 Z M 5.171875 -22.78125 "/></g></g></g><g fill="#524e4e" fill-opacity="1"><g transform="translate(59.754764, 175.099983)"><g><path d="M 28.625 -1.640625 C 29.0625 -1.585938 29.441406 -1.476562 29.765625 -1.3125 C 30.097656 -1.144531 30.332031 -0.84375 30.46875 -0.40625 C 30.789062 0.570312 30.429688 1.269531 29.390625 1.6875 C 29.066406 1.820312 28.738281 1.898438 28.40625 1.921875 C 28.082031 1.953125 27.769531 1.96875 27.46875 1.96875 L 8.40625 1.96875 C 7.851562 1.96875 7.285156 1.957031 6.703125 1.9375 C 6.117188 1.925781 5.523438 1.910156 4.921875 1.890625 C 4.347656 1.859375 3.867188 1.648438 3.484375 1.265625 C 3.097656 0.890625 2.878906 0.382812 2.828125 -0.25 L 2.703125 -3.109375 C 2.679688 -3.410156 2.679688 -3.765625 2.703125 -4.171875 C 2.734375 -4.585938 2.867188 -4.929688 3.109375 -5.203125 C 3.492188 -5.617188 4.003906 -5.878906 4.640625 -5.984375 C 5.285156 -6.097656 5.910156 -6.15625 6.515625 -6.15625 C 6.898438 -6.15625 7.535156 -6.15625 8.421875 -6.15625 C 9.316406 -6.15625 10.523438 -6.144531 12.046875 -6.125 C 13.578125 -6.113281 15.46875 -6.109375 17.71875 -6.109375 C 19.976562 -6.109375 22.664062 -6.109375 25.78125 -6.109375 L 25.78125 -7.578125 L 5.609375 -7.578125 C 5.335938 -7.578125 5.09375 -7.578125 4.875 -7.578125 C 4.65625 -7.578125 4.4375 -7.609375 4.21875 -7.671875 C 3.976562 -7.722656 3.757812 -7.773438 3.5625 -7.828125 C 3.375 -7.878906 3.210938 -8.015625 3.078125 -8.234375 C 2.691406 -8.816406 2.59375 -9.40625 2.78125 -10 C 2.863281 -10.21875 2.988281 -10.390625 3.15625 -10.515625 C 3.320312 -10.640625 3.515625 -10.742188 3.734375 -10.828125 C 3.953125 -10.910156 4.160156 -10.960938 4.359375 -10.984375 C 4.566406 -11.015625 4.753906 -11.039062 4.921875 -11.0625 C 5.328125 -11.144531 5.75 -11.1875 6.1875 -11.1875 C 6.570312 -11.1875 6.988281 -11.1875 7.4375 -11.1875 C 7.894531 -11.1875 8.4375 -11.179688 9.0625 -11.171875 C 9.6875 -11.160156 10.414062 -11.15625 11.25 -11.15625 C 12.082031 -11.15625 13.0625 -11.15625 14.1875 -11.15625 C 14.21875 -11.457031 14.238281 -11.75 14.25 -12.03125 C 14.257812 -12.320312 14.265625 -12.617188 14.265625 -12.921875 C 14.097656 -12.921875 13.726562 -12.925781 13.15625 -12.9375 C 12.582031 -12.945312 11.921875 -12.953125 11.171875 -12.953125 C 10.421875 -12.953125 9.613281 -12.957031 8.75 -12.96875 C 7.894531 -12.988281 7.085938 -13.003906 6.328125 -13.015625 C 5.578125 -13.023438 4.925781 -13.046875 4.375 -13.078125 C 3.832031 -13.109375 3.484375 -13.132812 3.328125 -13.15625 C 2.890625 -13.21875 2.539062 -13.25 2.28125 -13.25 C 2.019531 -13.25 1.710938 -13.410156 1.359375 -13.734375 C 0.992188 -14.066406 0.8125 -14.488281 0.8125 -15 C 0.8125 -15.570312 0.992188 -16.039062 1.359375 -16.40625 C 1.546875 -16.625 1.800781 -16.78125 2.125 -16.875 C 2.457031 -16.96875 2.773438 -17.035156 3.078125 -17.078125 C 3.378906 -17.117188 3.644531 -17.128906 3.875 -17.109375 C 4.101562 -17.097656 4.234375 -17.09375 4.265625 -17.09375 L 27.71875 -17.09375 C 28.125 -17.09375 28.53125 -17.09375 28.9375 -17.09375 C 29.351562 -17.09375 29.753906 -17.082031 30.140625 -17.0625 C 30.515625 -17.03125 30.882812 -16.992188 31.25 -16.953125 C 31.625 -16.910156 31.960938 -16.753906 32.265625 -16.484375 C 32.566406 -16.265625 32.738281 -16.015625 32.78125 -15.734375 C 32.820312 -15.460938 32.84375 -15.164062 32.84375 -14.84375 C 32.84375 -14.4375 32.722656 -14.109375 32.484375 -13.859375 C 32.253906 -13.609375 31.9375 -13.414062 31.53125 -13.28125 C 30.976562 -13.0625 30.367188 -12.960938 29.703125 -12.984375 C 29.035156 -13.015625 28.425781 -13.019531 27.875 -13 C 26.507812 -12.945312 25.191406 -12.921875 23.921875 -12.921875 C 22.648438 -12.921875 21.316406 -12.921875 19.921875 -12.921875 C 19.921875 -12.617188 19.921875 -12.320312 19.921875 -12.03125 C 19.921875 -11.75 19.910156 -11.457031 19.890625 -11.15625 L 26.203125 -11.15625 C 27.597656 -11.15625 28.660156 -10.941406 29.390625 -10.515625 C 30.128906 -10.085938 30.5 -9.398438 30.5 -8.453125 L 30.5 -5.53125 C 30.5 -5.15625 30.410156 -4.78125 30.234375 -4.40625 C 30.054688 -4.039062 29.75 -3.734375 29.3125 -3.484375 C 28.957031 -3.265625 28.601562 -3.144531 28.25 -3.125 C 27.894531 -3.113281 27.539062 -3.109375 27.1875 -3.109375 L 7.75 -3.109375 L 7.75 -1.640625 Z M 4.671875 -19.890625 C 4.367188 -20.128906 4.128906 -20.429688 3.953125 -20.796875 C 3.773438 -21.171875 3.644531 -21.539062 3.5625 -21.90625 C 3.476562 -22.28125 3.421875 -22.601562 3.390625 -22.875 C 3.367188 -23.144531 3.359375 -23.296875 3.359375 -23.328125 L 3.359375 -29.8125 C 3.359375 -30.320312 3.488281 -30.832031 3.75 -31.34375 C 4.007812 -31.851562 4.441406 -32.144531 5.046875 -32.21875 C 5.316406 -32.25 5.613281 -32.242188 5.9375 -32.203125 C 6.269531 -32.160156 6.578125 -32.078125 6.859375 -31.953125 C 7.148438 -31.835938 7.394531 -31.660156 7.59375 -31.421875 C 7.800781 -31.191406 7.9375 -30.910156 8 -30.578125 C 8.050781 -30.335938 8.054688 -30.0625 8.015625 -29.75 C 7.972656 -29.4375 8.007812 -29.15625 8.125 -28.90625 C 8.175781 -28.769531 8.3125 -28.707031 8.53125 -28.71875 C 8.75 -28.726562 8.925781 -28.722656 9.0625 -28.703125 C 9.6875 -28.648438 10.320312 -28.640625 10.96875 -28.671875 C 11.613281 -28.710938 12.265625 -28.734375 12.921875 -28.734375 L 24.234375 -28.734375 C 24.472656 -28.734375 24.664062 -28.722656 24.8125 -28.703125 C 25.101562 -28.671875 25.316406 -28.664062 25.453125 -28.6875 C 25.597656 -28.71875 25.804688 -28.765625 26.078125 -28.828125 C 26.128906 -29.046875 26.15625 -29.265625 26.15625 -29.484375 C 26.15625 -29.703125 26.15625 -29.921875 26.15625 -30.140625 C 26.1875 -30.628906 26.296875 -31.070312 26.484375 -31.46875 C 26.671875 -31.863281 27.015625 -32.113281 27.515625 -32.21875 C 28.472656 -32.414062 29.238281 -32.28125 29.8125 -31.8125 C 30.382812 -31.351562 30.65625 -30.628906 30.625 -29.640625 C 30.59375 -28.410156 30.597656 -27.148438 30.640625 -25.859375 C 30.679688 -24.578125 30.648438 -23.3125 30.546875 -22.0625 C 30.492188 -21.675781 30.410156 -21.359375 30.296875 -21.109375 C 30.191406 -20.867188 30.03125 -20.582031 29.8125 -20.25 C 29.59375 -19.945312 29.300781 -19.722656 28.9375 -19.578125 C 28.582031 -19.429688 28.203125 -19.328125 27.796875 -19.265625 C 27.390625 -19.210938 26.976562 -19.1875 26.5625 -19.1875 C 26.15625 -19.1875 25.785156 -19.1875 25.453125 -19.1875 C 25.023438 -19.15625 24.648438 -19.140625 24.328125 -19.140625 C 24.015625 -19.140625 23.722656 -19.140625 23.453125 -19.140625 C 23.179688 -19.140625 22.882812 -19.144531 22.5625 -19.15625 C 22.25 -19.175781 21.875 -19.1875 21.4375 -19.1875 C 20.78125 -19.1875 20.1875 -19.1875 19.65625 -19.1875 C 19.125 -19.1875 18.597656 -19.1875 18.078125 -19.1875 C 17.554688 -19.1875 17.019531 -19.1875 16.46875 -19.1875 C 15.925781 -19.1875 15.328125 -19.1875 14.671875 -19.1875 C 14.210938 -19.1875 13.75 -19.171875 13.28125 -19.140625 C 12.820312 -19.117188 12.359375 -19.109375 11.890625 -19.109375 C 10.578125 -19.128906 9.28125 -19.128906 8 -19.109375 C 7.425781 -19.109375 6.84375 -19.148438 6.25 -19.234375 C 5.664062 -19.316406 5.140625 -19.535156 4.671875 -19.890625 Z M 8.125 -23.578125 C 8.175781 -23.328125 8.300781 -23.15625 8.5 -23.0625 C 8.707031 -22.96875 8.941406 -22.90625 9.203125 -22.875 C 9.460938 -22.851562 9.726562 -22.847656 10 -22.859375 C 10.269531 -22.867188 10.488281 -22.875 10.65625 -22.875 C 11.425781 -22.875 12.1875 -22.867188 12.9375 -22.859375 C 13.6875 -22.847656 14.429688 -22.84375 15.171875 -22.84375 C 15.691406 -22.84375 16.140625 -22.84375 16.515625 -22.84375 C 16.898438 -22.84375 17.273438 -22.84375 17.640625 -22.84375 C 18.015625 -22.84375 18.398438 -22.847656 18.796875 -22.859375 C 19.191406 -22.867188 19.648438 -22.875 20.171875 -22.875 C 20.441406 -22.90625 20.710938 -22.910156 20.984375 -22.890625 C 21.265625 -22.878906 21.554688 -22.875 21.859375 -22.875 C 22.078125 -22.875 22.285156 -22.882812 22.484375 -22.90625 C 22.691406 -22.9375 22.90625 -22.941406 23.125 -22.921875 C 23.34375 -22.867188 23.566406 -22.847656 23.796875 -22.859375 C 24.035156 -22.867188 24.265625 -22.875 24.484375 -22.875 C 24.617188 -22.851562 24.78125 -22.832031 24.96875 -22.8125 C 25.15625 -22.800781 25.332031 -22.800781 25.5 -22.8125 C 25.664062 -22.832031 25.800781 -22.894531 25.90625 -23 C 26.019531 -23.113281 26.078125 -23.28125 26.078125 -23.5 C 26.078125 -23.71875 26.085938 -23.894531 26.109375 -24.03125 C 26.140625 -24.164062 26.070312 -24.328125 25.90625 -24.515625 C 25.6875 -24.734375 25.453125 -24.851562 25.203125 -24.875 C 24.960938 -24.90625 24.707031 -24.910156 24.4375 -24.890625 L 18.28125 -24.890625 C 18.195312 -24.890625 17.84375 -24.890625 17.21875 -24.890625 C 16.59375 -24.890625 15.910156 -24.894531 15.171875 -24.90625 C 14.429688 -24.914062 13.742188 -24.921875 13.109375 -24.921875 C 12.484375 -24.921875 12.128906 -24.921875 12.046875 -24.921875 C 11.804688 -24.921875 11.453125 -24.945312 10.984375 -25 C 10.523438 -25.0625 10.078125 -25.078125 9.640625 -25.046875 C 9.203125 -25.023438 8.820312 -24.9375 8.5 -24.78125 C 8.1875 -24.632812 8.03125 -24.351562 8.03125 -23.9375 C 8.03125 -23.800781 8.035156 -23.726562 8.046875 -23.71875 C 8.066406 -23.707031 8.09375 -23.660156 8.125 -23.578125 Z M 8.125 -23.578125 "/></g></g></g><g fill="#524e4e" fill-opacity="1"><g transform="translate(95.459364, 175.099983)"><g/></g></g><g fill="#524e4e" fill-opacity="1"><g transform="translate(108.167337, 175.099983)"><g><path d="M 19.515625 -5.859375 C 19.867188 -5.617188 20.117188 -5.289062 20.265625 -4.875 C 20.421875 -4.46875 20.484375 -4.046875 20.453125 -3.609375 C 20.429688 -3.171875 20.316406 -2.757812 20.109375 -2.375 C 19.898438 -1.988281 19.609375 -1.703125 19.234375 -1.515625 C 18.628906 -1.191406 18 -0.972656 17.34375 -0.859375 C 16.6875 -0.753906 16.046875 -0.703125 15.421875 -0.703125 L 13.734375 -0.703125 C 12.972656 -0.671875 12.210938 -0.664062 11.453125 -0.6875 C 10.703125 -0.71875 9.945312 -0.722656 9.1875 -0.703125 L 8.484375 -0.703125 C 8.023438 -0.703125 7.539062 -0.710938 7.03125 -0.734375 C 6.519531 -0.765625 6.007812 -0.832031 5.5 -0.9375 C 5 -1.050781 4.53125 -1.207031 4.09375 -1.40625 C 3.65625 -1.613281 3.300781 -1.894531 3.03125 -2.25 C 2.757812 -2.582031 2.554688 -3.015625 2.421875 -3.546875 C 2.285156 -4.078125 2.1875 -4.601562 2.125 -5.125 C 2.070312 -5.644531 2.046875 -6.09375 2.046875 -6.46875 C 2.046875 -6.851562 2.046875 -7.078125 2.046875 -7.140625 L 2.046875 -26.484375 C 2.046875 -26.515625 2.046875 -26.640625 2.046875 -26.859375 C 2.046875 -27.078125 2.054688 -27.316406 2.078125 -27.578125 C 2.109375 -27.835938 2.148438 -28.09375 2.203125 -28.34375 C 2.265625 -28.601562 2.335938 -28.816406 2.421875 -28.984375 C 2.660156 -29.367188 2.90625 -29.65625 3.15625 -29.84375 C 3.40625 -30.039062 3.734375 -30.164062 4.140625 -30.21875 C 4.253906 -30.25 4.382812 -30.265625 4.53125 -30.265625 C 4.675781 -30.265625 4.832031 -30.273438 5 -30.296875 C 5.164062 -30.296875 5.359375 -30.3125 5.578125 -30.34375 L 15.65625 -30.34375 C 15.789062 -30.34375 15.929688 -30.332031 16.078125 -30.3125 C 16.234375 -30.300781 16.378906 -30.3125 16.515625 -30.34375 L 16.609375 -30.34375 C 16.878906 -30.34375 17.132812 -30.328125 17.375 -30.296875 C 17.625 -30.273438 17.875 -30.222656 18.125 -30.140625 C 18.363281 -30.078125 18.609375 -30.003906 18.859375 -29.921875 C 19.109375 -29.847656 19.328125 -29.703125 19.515625 -29.484375 C 19.847656 -29.128906 20.050781 -28.675781 20.125 -28.125 C 20.1875 -27.90625 20.222656 -27.695312 20.234375 -27.5 C 20.242188 -27.3125 20.222656 -27.109375 20.171875 -26.890625 C 20.085938 -26.316406 19.859375 -25.816406 19.484375 -25.390625 C 19.117188 -24.972656 18.625 -24.765625 18 -24.765625 L 7.671875 -24.765625 L 7.671875 -18.8125 C 8.109375 -18.789062 8.507812 -18.78125 8.875 -18.78125 C 9.25 -18.78125 9.582031 -18.78125 9.875 -18.78125 C 10.207031 -18.78125 10.507812 -18.789062 10.78125 -18.8125 L 14.765625 -18.8125 C 14.898438 -18.8125 15.035156 -18.804688 15.171875 -18.796875 C 15.304688 -18.785156 15.441406 -18.789062 15.578125 -18.8125 L 16.6875 -18.8125 C 16.988281 -18.8125 17.296875 -18.785156 17.609375 -18.734375 C 17.921875 -18.679688 18.210938 -18.570312 18.484375 -18.40625 C 18.898438 -18.164062 19.160156 -17.804688 19.265625 -17.328125 C 19.378906 -16.847656 19.410156 -16.390625 19.359375 -15.953125 C 19.359375 -15.734375 19.347656 -15.515625 19.328125 -15.296875 C 19.316406 -15.078125 19.242188 -14.882812 19.109375 -14.71875 C 18.773438 -14.25 18.441406 -13.96875 18.109375 -13.875 C 17.785156 -13.78125 17.4375 -13.734375 17.0625 -13.734375 L 12.140625 -13.734375 C 11.972656 -13.703125 11.765625 -13.6875 11.515625 -13.6875 L 9.84375 -13.6875 C 9.488281 -13.6875 9.128906 -13.6875 8.765625 -13.6875 C 8.410156 -13.6875 8.054688 -13.703125 7.703125 -13.734375 C 7.734375 -12.640625 7.734375 -11.679688 7.703125 -10.859375 C 7.679688 -10.046875 7.671875 -9.625 7.671875 -9.59375 L 7.671875 -8.125 C 7.671875 -7.738281 7.695312 -7.398438 7.75 -7.109375 C 7.800781 -6.828125 7.851562 -6.671875 7.90625 -6.640625 C 8.101562 -6.535156 8.421875 -6.453125 8.859375 -6.390625 C 9.296875 -6.335938 9.773438 -6.3125 10.296875 -6.3125 L 10.453125 -6.3125 C 11.359375 -6.34375 12.257812 -6.34375 13.15625 -6.3125 L 15.171875 -6.3125 C 15.253906 -6.3125 15.34375 -6.3125 15.4375 -6.3125 C 15.53125 -6.3125 15.632812 -6.328125 15.75 -6.359375 L 16.4375 -6.359375 C 16.875 -6.359375 17.3125 -6.34375 17.75 -6.3125 C 18.1875 -6.28125 18.625 -6.195312 19.0625 -6.0625 C 19.144531 -6.039062 19.21875 -6.015625 19.28125 -5.984375 C 19.351562 -5.953125 19.429688 -5.910156 19.515625 -5.859375 Z M 30.90625 -19.0625 C 31.050781 -19.0625 31.179688 -19.046875 31.296875 -19.015625 C 31.421875 -18.992188 31.550781 -18.984375 31.6875 -18.984375 C 31.820312 -18.953125 31.972656 -18.929688 32.140625 -18.921875 C 32.304688 -18.910156 32.472656 -18.890625 32.640625 -18.859375 C 32.941406 -18.804688 33.238281 -18.703125 33.53125 -18.546875 C 33.832031 -18.398438 34.050781 -18.175781 34.1875 -17.875 C 34.382812 -17.570312 34.484375 -17.21875 34.484375 -16.8125 C 34.484375 -16.59375 34.472656 -16.394531 34.453125 -16.21875 C 34.441406 -16.039062 34.410156 -15.84375 34.359375 -15.625 C 34.304688 -15.40625 34.242188 -15.171875 34.171875 -14.921875 C 34.109375 -14.679688 33.976562 -14.488281 33.78125 -14.34375 C 33.394531 -14.070312 33.023438 -13.894531 32.671875 -13.8125 C 32.234375 -13.757812 31.703125 -13.742188 31.078125 -13.765625 C 30.453125 -13.796875 29.921875 -13.800781 29.484375 -13.78125 C 29.453125 -13.78125 29.421875 -13.765625 29.390625 -13.734375 L 29.359375 -13.734375 L 29.3125 -13.6875 L 29.3125 -13.578125 C 29.3125 -13.242188 29.3125 -12.84375 29.3125 -12.375 C 29.3125 -11.914062 29.3125 -11.445312 29.3125 -10.96875 C 29.3125 -10.488281 29.3125 -10.019531 29.3125 -9.5625 C 29.3125 -9.113281 29.3125 -8.710938 29.3125 -8.359375 C 29.363281 -6.941406 29.363281 -5.550781 29.3125 -4.1875 L 29.3125 -3.609375 C 29.3125 -3.253906 29.304688 -2.863281 29.296875 -2.4375 C 29.285156 -2.007812 29.25 -1.59375 29.1875 -1.1875 C 29.132812 -0.78125 29.039062 -0.390625 28.90625 -0.015625 C 28.769531 0.347656 28.578125 0.65625 28.328125 0.90625 C 28.003906 1.28125 27.566406 1.46875 27.015625 1.46875 C 27.015625 1.46875 26.988281 1.457031 26.9375 1.4375 C 26.28125 1.40625 25.753906 1.210938 25.359375 0.859375 C 24.960938 0.503906 24.660156 0.0664062 24.453125 -0.453125 C 24.253906 -0.972656 24.125 -1.507812 24.0625 -2.0625 C 24.007812 -2.625 23.984375 -3.125 23.984375 -3.5625 L 23.984375 -27.921875 C 23.984375 -27.953125 23.984375 -28.082031 23.984375 -28.3125 C 23.984375 -28.539062 24.007812 -28.8125 24.0625 -29.125 C 24.125 -29.445312 24.210938 -29.773438 24.328125 -30.109375 C 24.453125 -30.453125 24.625 -30.734375 24.84375 -30.953125 C 25.039062 -31.140625 25.320312 -31.28125 25.6875 -31.375 C 26.050781 -31.476562 26.382812 -31.53125 26.6875 -31.53125 C 27.289062 -31.53125 27.796875 -31.320312 28.203125 -30.90625 C 28.585938 -30.53125 28.8125 -30.128906 28.875 -29.703125 C 28.945312 -29.273438 29.007812 -28.832031 29.0625 -28.375 C 29.09375 -28.257812 29.109375 -28.09375 29.109375 -27.875 C 29.160156 -27.414062 29.191406 -26.9375 29.203125 -26.4375 C 29.222656 -25.945312 29.25 -25.457031 29.28125 -24.96875 C 29.28125 -24.664062 29.285156 -24.367188 29.296875 -24.078125 C 29.304688 -23.796875 29.3125 -23.503906 29.3125 -23.203125 C 29.289062 -23.035156 29.285156 -22.878906 29.296875 -22.734375 C 29.304688 -22.585938 29.3125 -22.441406 29.3125 -22.296875 L 29.3125 -20.046875 C 29.3125 -19.910156 29.3125 -19.757812 29.3125 -19.59375 C 29.3125 -19.4375 29.335938 -19.285156 29.390625 -19.140625 C 29.390625 -19.117188 29.523438 -19.109375 29.796875 -19.109375 C 30.078125 -19.109375 30.234375 -19.109375 30.265625 -19.109375 C 30.503906 -19.054688 30.691406 -19.039062 30.828125 -19.0625 Z M 30.90625 -19.0625 "/></g></g></g><g fill="#524e4e" fill-opacity="1"><g transform="translate(144.844602, 175.099983)"><g/></g></g><g fill="#524e4e" fill-opacity="1"><g transform="translate(157.552577, 175.099983)"><g/></g></g><g fill="#524e4e" fill-opacity="1"><g transform="translate(170.260553, 175.099983)"><g/></g></g><g fill="#524e4e" fill-opacity="1"><g transform="translate(182.968526, 175.099983)"><g/></g></g><g fill="#524e4e" fill-opacity="1"><g transform="translate(195.676503, 175.099983)"><g/></g></g><g fill="#524e4e" fill-opacity="1"><g transform="translate(208.38448, 175.099983)"><g/></g></g><g fill="#524e4e" fill-opacity="1"><g transform="translate(221.086788, 175.099983)"><g><path d="M 8.484375 -14.765625 C 9.253906 -14.734375 10.273438 -14.71875 11.546875 -14.71875 C 12.816406 -14.71875 14.078125 -14.734375 15.328125 -14.765625 L 25.875 -14.765625 C 26.09375 -14.765625 26.316406 -14.765625 26.546875 -14.765625 C 26.773438 -14.765625 27 -14.75 27.21875 -14.71875 C 27.65625 -14.6875 28.035156 -14.503906 28.359375 -14.171875 C 28.691406 -13.847656 28.925781 -13.457031 29.0625 -13 C 29.226562 -12.445312 29.222656 -11.914062 29.046875 -11.40625 C 28.867188 -10.90625 28.519531 -10.546875 28 -10.328125 C 27.675781 -10.191406 27.34375 -10.101562 27 -10.0625 C 26.65625 -10.019531 26.347656 -10 26.078125 -10 L 8.734375 -10 C 8.179688 -10 7.613281 -10 7.03125 -10 C 6.445312 -10 5.851562 -10.03125 5.25 -10.09375 C 4.675781 -10.113281 4.195312 -10.390625 3.8125 -10.921875 C 3.425781 -11.453125 3.191406 -12.078125 3.109375 -12.796875 C 3.085938 -13.035156 3.066406 -13.425781 3.046875 -13.96875 C 3.035156 -14.519531 3.03125 -15.085938 3.03125 -15.671875 C 3.03125 -16.265625 3.03125 -16.820312 3.03125 -17.34375 C 3.03125 -17.863281 3.03125 -18.234375 3.03125 -18.453125 C 3.03125 -18.503906 3.03125 -18.664062 3.03125 -18.9375 C 3.03125 -19.21875 3.019531 -19.394531 3 -19.46875 C 3 -19.800781 3.007812 -20.144531 3.03125 -20.5 C 3.0625 -20.851562 3.195312 -21.195312 3.4375 -21.53125 C 3.820312 -21.988281 4.328125 -22.265625 4.953125 -22.359375 C 5.585938 -22.460938 6.207031 -22.515625 6.8125 -22.515625 L 7.671875 -22.515625 C 7.804688 -22.515625 7.914062 -22.503906 8 -22.484375 C 8.082031 -22.472656 8.160156 -22.46875 8.234375 -22.46875 L 23.171875 -22.46875 L 23.171875 -25.34375 L 6.921875 -25.34375 C 6.765625 -25.3125 6.601562 -25.296875 6.4375 -25.296875 C 6.269531 -25.296875 6.101562 -25.296875 5.9375 -25.296875 C 5.425781 -25.296875 4.960938 -25.335938 4.546875 -25.421875 C 4.023438 -25.554688 3.628906 -25.882812 3.359375 -26.40625 C 3.191406 -26.726562 3.082031 -27.09375 3.03125 -27.5 C 2.976562 -27.914062 3.003906 -28.316406 3.109375 -28.703125 C 3.253906 -29.191406 3.570312 -29.554688 4.0625 -29.796875 C 4.550781 -30.046875 4.945312 -30.203125 5.25 -30.265625 C 5.65625 -30.335938 6.078125 -30.375 6.515625 -30.375 L 7.25 -30.375 C 7.394531 -30.351562 7.519531 -30.34375 7.625 -30.34375 C 7.738281 -30.34375 7.863281 -30.34375 8 -30.34375 L 24.484375 -30.34375 C 25.867188 -30.34375 26.914062 -30.015625 27.625 -29.359375 C 28.34375 -28.703125 28.703125 -27.828125 28.703125 -26.734375 L 28.703125 -21.96875 C 28.703125 -21.75 28.679688 -21.445312 28.640625 -21.0625 C 28.597656 -20.6875 28.53125 -20.289062 28.4375 -19.875 C 28.34375 -19.46875 28.21875 -19.09375 28.0625 -18.75 C 27.914062 -18.414062 27.734375 -18.179688 27.515625 -18.046875 C 27.160156 -17.796875 26.800781 -17.65625 26.4375 -17.625 C 26.082031 -17.601562 25.726562 -17.59375 25.375 -17.59375 L 8.484375 -17.59375 Z M 4.34375 -1.1875 C 3.90625 -1.21875 3.472656 -1.28125 3.046875 -1.375 C 2.628906 -1.46875 2.253906 -1.601562 1.921875 -1.78125 C 1.597656 -1.957031 1.332031 -2.207031 1.125 -2.53125 C 0.914062 -2.863281 0.8125 -3.304688 0.8125 -3.859375 C 0.8125 -4.398438 0.992188 -4.875 1.359375 -5.28125 C 1.578125 -5.5 1.847656 -5.660156 2.171875 -5.765625 C 2.503906 -5.878906 2.816406 -5.960938 3.109375 -6.015625 C 3.410156 -6.078125 3.675781 -6.109375 3.90625 -6.109375 C 4.144531 -6.109375 4.28125 -6.109375 4.3125 -6.109375 L 27.140625 -6.0625 C 27.847656 -6.0625 28.492188 -6.054688 29.078125 -6.046875 C 29.671875 -6.035156 30.203125 -5.835938 30.671875 -5.453125 C 31.242188 -4.929688 31.53125 -4.34375 31.53125 -3.6875 C 31.53125 -3.28125 31.40625 -2.90625 31.15625 -2.5625 C 30.914062 -2.21875 30.585938 -1.976562 30.171875 -1.84375 C 29.628906 -1.625 29.0625 -1.472656 28.46875 -1.390625 C 27.882812 -1.304688 27.304688 -1.253906 26.734375 -1.234375 C 24.734375 -1.148438 22.691406 -1.117188 20.609375 -1.140625 C 18.535156 -1.171875 16.585938 -1.1875 14.765625 -1.1875 C 12.796875 -1.1875 10.875 -1.171875 9 -1.140625 C 7.125 -1.117188 5.570312 -1.132812 4.34375 -1.1875 Z M 4.34375 -1.1875 "/></g></g></g><g fill="#524e4e" fill-opacity="1"><g transform="translate(255.479632, 175.099983)"><g/></g></g><g fill="#524e4e" fill-opacity="1"><g transform="translate(268.187606, 175.099983)"><g><path d="M 16.40625 -29.71875 C 17.519531 -29.71875 18.488281 -29.609375 19.3125 -29.390625 C 19.664062 -29.253906 20.003906 -29.070312 20.328125 -28.84375 C 20.660156 -28.613281 20.9375 -28.289062 21.15625 -27.875 C 21.375 -27.550781 21.507812 -27.195312 21.5625 -26.8125 C 21.613281 -26.425781 21.546875 -26.070312 21.359375 -25.75 C 21.035156 -24.976562 20.351562 -24.515625 19.3125 -24.359375 C 18.976562 -24.296875 18.632812 -24.242188 18.28125 -24.203125 C 17.925781 -24.171875 17.519531 -24.15625 17.0625 -24.15625 C 16.675781 -24.15625 16.203125 -24.160156 15.640625 -24.171875 C 15.078125 -24.179688 14.46875 -24.210938 13.8125 -24.265625 C 13.789062 -24.210938 13.78125 -24.039062 13.78125 -23.75 C 13.78125 -23.46875 13.78125 -23.109375 13.78125 -22.671875 C 13.78125 -22.234375 13.78125 -21.753906 13.78125 -21.234375 C 13.78125 -20.710938 13.78125 -20.179688 13.78125 -19.640625 C 13.78125 -18.359375 13.789062 -16.921875 13.8125 -15.328125 L 13.8125 -14.4375 C 13.8125 -14.238281 13.8125 -14.082031 13.8125 -13.96875 C 13.8125 -13.863281 13.84375 -13.742188 13.90625 -13.609375 C 13.925781 -13.585938 14.085938 -13.390625 14.390625 -13.015625 C 14.691406 -12.648438 15.050781 -12.191406 15.46875 -11.640625 C 15.894531 -11.097656 16.351562 -10.503906 16.84375 -9.859375 C 17.34375 -9.210938 17.8125 -8.601562 18.25 -8.03125 C 18.6875 -7.457031 19.066406 -6.945312 19.390625 -6.5 C 19.722656 -6.050781 19.929688 -5.742188 20.015625 -5.578125 C 20.234375 -5.191406 20.441406 -4.773438 20.640625 -4.328125 C 20.847656 -3.878906 20.976562 -3.4375 21.03125 -3 C 21.082031 -2.832031 21.113281 -2.640625 21.125 -2.421875 C 21.144531 -2.203125 21.15625 -1.96875 21.15625 -1.71875 C 21.039062 -1.332031 20.804688 -0.960938 20.453125 -0.609375 C 20.234375 -0.453125 20.007812 -0.316406 19.78125 -0.203125 C 19.550781 -0.0976562 19.285156 -0.046875 18.984375 -0.046875 C 18.492188 -0.046875 18.054688 -0.132812 17.671875 -0.3125 C 17.285156 -0.488281 16.925781 -0.71875 16.59375 -1 C 16.269531 -1.289062 15.972656 -1.613281 15.703125 -1.96875 C 15.429688 -2.320312 15.171875 -2.691406 14.921875 -3.078125 C 14.703125 -3.378906 14.421875 -3.757812 14.078125 -4.21875 C 13.742188 -4.6875 13.453125 -5.070312 13.203125 -5.375 C 13.035156 -5.59375 12.890625 -5.796875 12.765625 -5.984375 C 12.648438 -6.171875 12.492188 -6.375 12.296875 -6.59375 C 12.078125 -6.894531 11.859375 -7.203125 11.640625 -7.515625 C 11.421875 -7.835938 11.191406 -8.148438 10.953125 -8.453125 C 10.429688 -7.816406 9.957031 -7.203125 9.53125 -6.609375 C 9.101562 -6.023438 8.671875 -5.441406 8.234375 -4.859375 C 7.796875 -4.273438 7.34375 -3.679688 6.875 -3.078125 C 6.414062 -2.472656 5.898438 -1.828125 5.328125 -1.140625 C 5.023438 -0.816406 4.695312 -0.53125 4.34375 -0.28125 C 3.988281 -0.0390625 3.539062 0.078125 3 0.078125 C 2.882812 0.078125 2.769531 0.0546875 2.65625 0.015625 C 2.550781 -0.0234375 2.40625 -0.046875 2.21875 -0.046875 C 1.613281 -0.316406 1.203125 -0.679688 0.984375 -1.140625 C 0.847656 -1.441406 0.769531 -1.71875 0.75 -1.96875 C 0.738281 -2.21875 0.734375 -2.476562 0.734375 -2.75 C 0.785156 -3.050781 0.847656 -3.3125 0.921875 -3.53125 C 0.992188 -3.75 1.097656 -3.953125 1.234375 -4.140625 C 1.335938 -4.359375 1.441406 -4.578125 1.546875 -4.796875 C 1.660156 -5.015625 1.773438 -5.234375 1.890625 -5.453125 C 2.046875 -5.671875 2.191406 -5.878906 2.328125 -6.078125 C 2.472656 -6.285156 2.625 -6.5 2.78125 -6.71875 C 2.84375 -6.851562 2.925781 -6.96875 3.03125 -7.0625 C 3.144531 -7.164062 3.269531 -7.269531 3.40625 -7.375 C 3.457031 -7.507812 3.523438 -7.628906 3.609375 -7.734375 C 3.691406 -7.847656 3.757812 -8.003906 3.8125 -8.203125 C 3.945312 -8.367188 4.097656 -8.578125 4.265625 -8.828125 C 4.429688 -9.085938 4.625 -9.328125 4.84375 -9.546875 C 5.21875 -10.097656 5.625 -10.660156 6.0625 -11.234375 C 6.257812 -11.453125 6.453125 -11.703125 6.640625 -11.984375 C 6.828125 -12.273438 7.03125 -12.53125 7.25 -12.75 C 7.414062 -12.914062 7.609375 -13.148438 7.828125 -13.453125 C 8.046875 -13.753906 8.179688 -13.957031 8.234375 -14.0625 L 8.234375 -24.265625 L 3.40625 -24.265625 C 2.914062 -24.265625 2.597656 -24.296875 2.453125 -24.359375 C 1.421875 -24.515625 0.738281 -25.085938 0.40625 -26.078125 C 0.0820312 -27.003906 0.164062 -27.753906 0.65625 -28.328125 C 0.957031 -28.679688 1.257812 -28.96875 1.5625 -29.1875 C 1.863281 -29.40625 2.234375 -29.546875 2.671875 -29.609375 C 2.742188 -29.679688 2.851562 -29.71875 3 -29.71875 Z M 31.203125 -18.859375 C 31.804688 -18.859375 32.363281 -18.84375 32.875 -18.8125 C 33.394531 -18.789062 33.832031 -18.492188 34.1875 -17.921875 C 34.46875 -17.453125 34.609375 -16.957031 34.609375 -16.4375 C 34.609375 -15.914062 34.46875 -15.46875 34.1875 -15.09375 C 33.96875 -14.84375 33.753906 -14.648438 33.546875 -14.515625 C 33.347656 -14.378906 33.128906 -14.28125 32.890625 -14.21875 C 32.660156 -14.164062 32.394531 -14.132812 32.09375 -14.125 C 31.800781 -14.113281 31.476562 -14.09375 31.125 -14.0625 L 29.28125 -14.0625 L 29.28125 -8.453125 C 29.332031 -7.492188 29.34375 -6.507812 29.3125 -5.5 C 29.289062 -4.488281 29.28125 -3.503906 29.28125 -2.546875 C 29.28125 -2.328125 29.265625 -2.113281 29.234375 -1.90625 C 29.203125 -1.695312 29.1875 -1.484375 29.1875 -1.265625 C 29.132812 -1.109375 29.09375 -0.925781 29.0625 -0.71875 C 29.039062 -0.507812 28.972656 -0.320312 28.859375 -0.15625 C 28.804688 0.03125 28.738281 0.195312 28.65625 0.34375 C 28.570312 0.5 28.453125 0.644531 28.296875 0.78125 C 27.878906 1.164062 27.328125 1.359375 26.640625 1.359375 C 25.960938 1.359375 25.421875 1.125 25.015625 0.65625 C 24.660156 0.300781 24.429688 -0.144531 24.328125 -0.6875 C 24.234375 -1.238281 24.160156 -1.75 24.109375 -2.21875 C 24.109375 -2.488281 24.085938 -2.738281 24.046875 -2.96875 C 24.003906 -3.207031 23.984375 -3.4375 23.984375 -3.65625 L 23.984375 -27.875 C 23.984375 -28.09375 23.988281 -28.296875 24 -28.484375 C 24.019531 -28.679688 24.054688 -28.863281 24.109375 -29.03125 C 24.160156 -29.414062 24.226562 -29.753906 24.3125 -30.046875 C 24.394531 -30.347656 24.585938 -30.625 24.890625 -30.875 C 25.054688 -31.039062 25.328125 -31.191406 25.703125 -31.328125 C 26.140625 -31.429688 26.570312 -31.460938 27 -31.421875 C 27.425781 -31.378906 27.816406 -31.195312 28.171875 -30.875 C 28.628906 -30.539062 28.859375 -30.117188 28.859375 -29.609375 C 29.023438 -28.804688 29.132812 -28.03125 29.1875 -27.28125 C 29.25 -26.53125 29.28125 -25.757812 29.28125 -24.96875 L 29.28125 -18.859375 Z M 31.203125 -18.859375 "/></g></g></g><g fill="#524e4e" fill-opacity="1"><g transform="translate(304.582873, 175.099983)"><g/></g></g><g clip-path="url(#5b80b288ce)"><path fill="#00a2f4" d="M 232.414062 193.515625 L 197.988281 161.351562 L 187.414062 115.382812 L 176.839844 161.351562 L 142.414062 193.515625 L 187.414062 179.710938 Z M 232.414062 193.515625 " fill-opacity="1" fill-rule="evenodd"/></g><path fill="#d9d9d9" d="M 205.359375 157.246094 L 197.796875 124.375 C 196.367188 124.019531 194.910156 123.734375 193.425781 123.527344 L 201.675781 159.378906 L 226.847656 182.902344 C 227.425781 181.550781 227.929688 180.164062 228.367188 178.746094 C 229.601562 174.734375 230.265625 170.476562 230.265625 166.0625 C 230.265625 148.65625 219.9375 133.667969 205.085938 126.917969 C 220.835938 136.617188 228.078125 155.742188 222.722656 173.472656 Z M 205.359375 157.246094 " fill-opacity="1" fill-rule="evenodd"/><path fill="#d9d9d9" d="M 169.367188 157.246094 L 176.929688 124.375 C 178.359375 124.019531 179.816406 123.734375 181.296875 123.527344 L 173.050781 159.378906 L 147.875 182.902344 C 147.296875 181.550781 146.792969 180.164062 146.355469 178.746094 C 145.121094 174.734375 144.457031 170.476562 144.457031 166.0625 C 144.457031 148.65625 154.785156 133.667969 169.636719 126.917969 C 153.890625 136.617188 146.644531 155.742188 151.996094 173.472656 L 169.363281 157.246094 Z M 169.367188 157.246094 " fill-opacity="1" fill-rule="evenodd"/><g clip-path="url(#f515bbb122)"><path fill="#d9d9d9" d="M 161.121094 192.203125 L 154.945312 194.097656 C 155.9375 195.253906 156.988281 196.351562 158.097656 197.394531 C 165.539062 204.394531 175.476562 208.761719 186.429688 209.011719 C 177.242188 207.882812 168.976562 203.054688 163.464844 195.75 L 187.414062 188.402344 L 211.363281 195.75 C 205.851562 203.054688 197.585938 207.882812 188.398438 209.011719 C 199.347656 208.761719 209.285156 204.394531 216.730469 197.394531 C 217.839844 196.351562 218.890625 195.253906 219.882812 194.097656 L 213.707031 192.203125 L 187.414062 184.136719 Z M 161.121094 192.203125 " fill-opacity="1" fill-rule="evenodd"/></g><g fill="#524e4e" fill-opacity="1"><g transform="translate(168.424827, 177.260251)"><g><path d="M 33.296875 -6.9375 C 33.390625 -6.90625 33.484375 -6.894531 33.578125 -6.90625 C 33.671875 -6.925781 33.765625 -6.9375 33.859375 -6.9375 C 34.390625 -6.875 34.882812 -6.769531 35.34375 -6.625 C 35.800781 -6.476562 36.25 -6.21875 36.6875 -5.84375 C 37.125 -5.40625 37.34375 -4.859375 37.34375 -4.203125 C 37.34375 -3.847656 37.285156 -3.472656 37.171875 -3.078125 C 37.066406 -2.691406 36.921875 -2.390625 36.734375 -2.171875 C 36.484375 -1.921875 36.164062 -1.734375 35.78125 -1.609375 C 35.40625 -1.484375 35.046875 -1.394531 34.703125 -1.34375 C 34.359375 -1.289062 34.050781 -1.265625 33.78125 -1.265625 C 33.519531 -1.265625 33.375 -1.265625 33.34375 -1.265625 L 6.9375 -1.265625 C 6.78125 -1.265625 6.617188 -1.253906 6.453125 -1.234375 C 6.296875 -1.222656 6.140625 -1.21875 5.984375 -1.21875 C 5.328125 -1.1875 4.617188 -1.195312 3.859375 -1.25 C 3.109375 -1.300781 2.46875 -1.546875 1.9375 -1.984375 C 1.269531 -2.578125 0.9375 -3.253906 0.9375 -4.015625 C 0.9375 -4.484375 1.078125 -4.96875 1.359375 -5.46875 C 1.648438 -5.96875 2.03125 -6.3125 2.5 -6.5 C 3.125 -6.757812 3.773438 -6.890625 4.453125 -6.890625 C 5.128906 -6.890625 5.8125 -6.90625 6.5 -6.9375 L 6.75 -6.9375 C 9.476562 -7 12.289062 -7 15.1875 -6.9375 L 15.140625 -13.8125 C 14.191406 -13.875 13.257812 -13.984375 12.34375 -14.140625 C 11.4375 -14.296875 10.554688 -14.546875 9.703125 -14.890625 C 8.859375 -15.242188 8.066406 -15.695312 7.328125 -16.25 C 6.585938 -16.800781 5.9375 -17.484375 5.375 -18.296875 C 4.65625 -19.273438 4.175781 -20.3125 3.9375 -21.40625 C 3.695312 -22.507812 3.578125 -23.65625 3.578125 -24.84375 C 3.578125 -27.300781 4.226562 -29.351562 5.53125 -31 C 6.84375 -32.65625 8.628906 -33.84375 10.890625 -34.5625 C 12.398438 -35.0625 13.929688 -35.382812 15.484375 -35.53125 C 17.046875 -35.675781 18.613281 -35.6875 20.1875 -35.5625 C 21.46875 -35.46875 22.753906 -35.335938 24.046875 -35.171875 C 25.335938 -35.015625 26.582031 -34.671875 27.78125 -34.140625 C 28.3125 -33.890625 28.828125 -33.585938 29.328125 -33.234375 C 29.828125 -32.890625 30.300781 -32.484375 30.75 -32.015625 C 31.84375 -30.828125 32.59375 -29.539062 33 -28.15625 C 33.414062 -26.769531 33.5625 -25.289062 33.4375 -23.71875 C 33.3125 -21.925781 32.882812 -20.410156 32.15625 -19.171875 C 31.4375 -17.929688 30.519531 -16.910156 29.40625 -16.109375 C 28.289062 -15.304688 27.015625 -14.710938 25.578125 -14.328125 C 24.148438 -13.953125 22.664062 -13.765625 21.125 -13.765625 L 21.21875 -6.9375 C 22.101562 -6.9375 22.90625 -6.941406 23.625 -6.953125 C 24.34375 -6.972656 25.046875 -6.984375 25.734375 -6.984375 C 26.429688 -6.984375 27.125 -6.984375 27.8125 -6.984375 C 28.507812 -6.984375 29.265625 -6.96875 30.078125 -6.9375 C 30.648438 -6.90625 31.203125 -6.910156 31.734375 -6.953125 C 32.265625 -7.003906 32.785156 -7 33.296875 -6.9375 Z M 27.25 -23.015625 C 27.34375 -23.421875 27.375 -23.8125 27.34375 -24.1875 C 27.28125 -25.820312 26.769531 -27.039062 25.8125 -27.84375 C 24.851562 -28.644531 23.617188 -29.140625 22.109375 -29.328125 C 21.234375 -29.421875 20.148438 -29.519531 18.859375 -29.625 C 17.566406 -29.738281 16.300781 -29.703125 15.0625 -29.515625 C 13.820312 -29.328125 12.726562 -28.941406 11.78125 -28.359375 C 10.84375 -27.773438 10.28125 -26.859375 10.09375 -25.609375 C 10 -24.847656 10.003906 -24.125 10.109375 -23.4375 C 10.222656 -22.75 10.484375 -22.132812 10.890625 -21.59375 C 11.296875 -21.0625 11.859375 -20.609375 12.578125 -20.234375 C 13.304688 -19.859375 14.238281 -19.617188 15.375 -19.515625 C 16.46875 -19.390625 17.585938 -19.28125 18.734375 -19.1875 C 19.890625 -19.09375 21.015625 -19.15625 22.109375 -19.375 C 22.648438 -19.46875 23.191406 -19.601562 23.734375 -19.78125 C 24.285156 -19.957031 24.796875 -20.1875 25.265625 -20.46875 C 25.742188 -20.75 26.15625 -21.097656 26.5 -21.515625 C 26.84375 -21.941406 27.09375 -22.441406 27.25 -23.015625 Z M 27.25 -23.015625 "/></g></g></g></svg>

